<?xml version="1.0" standalone="no"?>
<!DOCTYPE svg PUBLIC "-//W3C//DTD SVG 20010904//EN"
 "http://www.w3.org/TR/2001/REC-SVG-20010904/DTD/svg10.dtd">
<svg version="1.0" xmlns="http://www.w3.org/2000/svg"
 width="360.000000pt" height="360.000000pt" viewBox="0 0 360.000000 360.000000"
 preserveAspectRatio="xMidYMid meet">

<g transform="translate(0.000000,360.000000) scale(0.100000,-0.100000)"
fill="#000000" stroke="none">
<path d="M1693 2851 c-309 -97 -574 -183 -588 -191 -15 -8 -38 -33 -51 -56
l-24 -41 0 -962 0 -963 34 -34 34 -34 696 0 c747 0 739 -1 766 49 14 27 14
1945 0 1972 -18 33 -64 49 -145 49 l-75 0 0 174 0 175 -26 20 c-15 12 -34 21
-43 20 -9 0 -269 -80 -578 -178z m497 -11 c17 -17 20 -33 20 -110 l0 -90 -377
1 c-291 1 -370 4 -343 12 19 6 172 55 340 108 168 53 313 97 323 98 9 1 26 -8
37 -19z m-249 -626 c240 -71 408 -307 384 -544 -27 -276 -250 -480 -525 -480
-146 0 -260 48 -366 154 -106 106 -154 220 -154 366 0 146 48 260 154 365 113
112 210 153 367 154 51 1 107 -5 140 -15z m472 -1193 c23 -19 24 -176 1 -209
l-15 -22 -578 0 c-688 0 -631 -11 -631 124 0 82 9 109 40 118 8 3 274 5 591 4
472 -1 579 -3 592 -15z"/>
<path d="M1830 2089 l0 -99 76 0 c74 0 75 1 68 23 -22 71 -86 163 -119 169
l-25 5 0 -98z"/>
<path d="M1688 2142 c-26 -39 -78 -137 -78 -147 0 -3 38 -5 85 -5 l85 0 0 95
0 95 -34 0 c-28 0 -38 -7 -58 -38z"/>
<path d="M1584 2131 c-67 -37 -120 -78 -145 -112 l-20 -29 69 0 69 0 41 82
c22 46 40 84 39 85 -2 1 -25 -11 -53 -26z"/>
<path d="M1994 2076 l41 -85 80 -1 79 0 -47 48 c-46 47 -131 104 -173 116 -20
6 -18 -1 20 -78z"/>
<path d="M1360 1889 c-12 -29 -24 -76 -27 -105 l-6 -54 91 0 91 0 5 33 c3 17
7 50 10 72 3 22 8 55 12 73 l7 32 -81 0 -80 0 -22 -51z"/>
<path d="M1582 1898 c-6 -24 -14 -71 -18 -106 l-7 -63 109 3 109 3 3 103 3
102 -94 0 -95 0 -10 -42z"/>
<path d="M1830 1835 l0 -105 100 0 100 0 0 43 c-1 23 -6 69 -13 102 l-13 60
-87 3 -87 3 0 -106z"/>
<path d="M2054 1925 c3 -9 11 -56 18 -106 l12 -90 95 3 96 3 -3 44 c-1 24 -13
69 -25 100 l-22 56 -89 3 c-78 2 -88 1 -82 -13z"/>
<path d="M1333 1636 c3 -29 15 -76 27 -105 l22 -51 80 0 81 0 -7 33 c-4 17 -9
50 -12 72 -3 22 -7 55 -10 73 l-5 32 -91 0 -91 0 6 -54z"/>
<path d="M1564 1628 c4 -35 12 -82 18 -105 l10 -43 94 0 94 0 0 105 0 105
-111 0 -112 0 7 -62z"/>
<path d="M1830 1585 l0 -105 85 0 84 0 11 38 c6 20 13 67 17 105 l6 67 -102 0
-101 0 0 -105z"/>
<path d="M2072 1608 c-6 -46 -14 -93 -18 -106 -7 -23 -6 -23 82 -20 l89 3 21
55 c12 30 25 76 28 103 l7 47 -99 0 -98 0 -12 -82z"/>
<path d="M1420 1431 c0 -20 102 -109 160 -140 33 -18 60 -31 60 -29 0 2 -20
41 -44 88 l-43 85 -66 3 c-40 2 -67 -1 -67 -7z"/>
<path d="M1610 1430 c0 -14 46 -104 78 -152 20 -32 30 -38 59 -38 l34 0 -3 98
-3 97 -82 3 c-54 2 -83 -1 -83 -8z"/>
<path d="M1830 1339 l0 -100 27 3 c22 2 36 17 70 73 23 39 45 82 49 98 l6 27
-76 0 -76 0 0 -101z"/>
<path d="M1998 1350 c-25 -49 -43 -90 -41 -90 2 0 28 12 58 26 56 28 148 103
165 135 10 18 6 19 -63 19 l-74 0 -45 -90z"/>
</g>
</svg>
